<svg version="1.0" xmlns="http://www.w3.org/2000/svg"
 width="225.000000pt" height="225.000000pt" viewBox="0 0 225.000000 225.000000"
 preserveAspectRatio="xMidYMid meet">

<g transform="translate(0.000000,225.000000) scale(0.100000,-0.100000)"
fill="#000000" stroke="none">
<path d="M721 1926 c-8 -9 -14 -34 -15 -55 -1 -35 -2 -37 -14 -20 -24 34 -51
43 -73 23 -28 -25 -24 -31 29 -47 42 -13 44 -15 17 -16 -40 -2 -100 -51 -62
-51 6 0 25 7 41 15 15 8 33 15 40 15 6 -1 -6 -10 -26 -20 -40 -22 -71 -58 -61
-73 3 -5 11 -1 17 9 9 17 12 14 16 -21 l5 -40 18 35 18 35 -6 -59 c-5 -53 -4
-58 10 -46 14 12 15 10 10 -13 -8 -30 2 -35 19 -11 10 13 15 -20 25 -156 13
-193 11 -202 -53 -216 -17 -3 -35 -10 -41 -14 -5 -4 -33 -14 -60 -23 -88 -28
-140 -14 -116 31 5 10 5 41 1 72 -5 30 -16 110 -25 177 -16 121 -16 123 4 145
25 26 27 55 5 86 -18 26 -12 29 11 6 15 -15 17 -15 29 2 19 26 5 58 -28 62
l-27 3 22 18 c19 15 20 18 5 30 -20 17 -44 8 -56 -21 -9 -23 -9 -22 -9 4 -1
14 -4 33 -7 42 -5 14 -8 14 -21 0 -8 -8 -12 -21 -9 -29 3 -8 0 -12 -7 -9 -7 2
-21 -2 -32 -10 -15 -11 -17 -17 -8 -28 8 -9 9 -19 3 -28 -14 -22 -12 -50 4
-50 14 0 26 -29 26 -66 0 -22 24 -39 41 -28 5 3 9 3 9 1 0 -2 4 -28 10 -56 5
-29 12 -82 15 -118 3 -36 10 -84 15 -107 5 -22 10 -60 10 -83 0 -42 0 -43 -35
-43 -31 0 -35 -3 -35 -25 0 -18 -5 -25 -19 -25 -10 0 -29 -9 -42 -21 -13 -11
-18 -18 -11 -14 7 4 12 0 12 -10 0 -10 -5 -13 -11 -9 -9 5 -10 -1 -4 -22 4
-16 7 -47 7 -69 -1 -140 -3 -174 -12 -180 -5 -3 -10 -12 -10 -18 0 -8 4 -7 9
2 6 10 11 -2 16 -40 4 -30 6 -58 4 -64 -5 -20 14 -45 33 -45 12 0 17 -4 12
-12 -4 -7 -3 -8 4 -4 6 4 23 4 37 0 19 -5 23 -9 14 -15 -7 -4 -11 -11 -7 -14
3 -4 15 -1 25 6 16 9 25 8 49 -5 16 -10 20 -14 9 -11 -44 15 -58 14 -25 -1 19
-10 57 -19 84 -21 28 -1 54 -7 59 -12 5 -5 16 -7 25 -4 10 4 13 2 8 -5 -5 -8
-2 -10 9 -6 22 9 51 -16 33 -28 -8 -5 -1 -6 17 -2 19 3 25 2 17 -3 -9 -7 -2
-10 20 -10 41 0 63 -6 113 -32 21 -12 47 -18 57 -15 10 3 34 -3 52 -14 24 -14
38 -17 51 -9 12 6 16 6 11 -1 -4 -7 15 -18 47 -28 54 -17 55 -17 123 9 42 16
79 24 94 21 16 -4 21 -3 12 3 -9 7 -2 14 25 28 21 10 46 19 56 20 11 1 22 7
26 14 5 7 24 13 43 14 20 1 34 5 32 8 -5 8 45 31 79 35 15 2 33 8 40 14 24 20
133 73 157 76 14 2 56 17 93 34 l67 30 -1 118 c0 64 -5 120 -10 123 -11 7 -14
74 -5 115 6 28 4 32 -24 44 -16 7 -30 17 -30 22 0 5 -4 7 -9 3 -5 -3 -11 6
-13 20 l-3 26 -33 -25 c-50 -36 -65 -26 -58 43 3 31 5 59 5 63 1 4 8 13 16 21
8 9 16 36 17 61 0 25 5 46 10 46 10 0 10 -12 -2 -70 -9 -50 -6 -62 14 -54 8 3
17 26 21 50 5 38 9 43 21 33 12 -10 14 -4 14 33 0 25 3 48 8 52 4 4 7 21 7 37
0 32 -21 45 -55 34 -13 -4 -20 -2 -20 8 0 7 -11 20 -25 27 -32 17 -55 0 -55
-41 0 -18 -5 -29 -14 -29 -16 0 -66 -38 -66 -51 0 -5 12 -9 27 -9 l27 0 -22
-16 c-27 -19 -29 -40 -4 -46 15 -4 18 -13 15 -39 -1 -19 0 -28 3 -21 4 9 11 5
20 -13 17 -32 18 -64 4 -100 -12 -31 -23 -30 -122 18 l-67 32 0 103 c0 56 4
100 8 98 4 -3 14 10 21 29 7 19 18 31 23 28 5 -3 6 11 2 35 -6 37 -4 44 23 70
29 28 30 31 15 52 -12 17 -17 19 -24 9 -7 -11 -9 -10 -9 5 0 12 -5 16 -15 12
-8 -3 -15 -1 -15 5 0 7 12 9 29 7 26 -4 28 -2 21 16 -4 11 -18 23 -31 26 -20
5 -21 7 -6 13 9 3 17 11 17 17 0 12 -39 -6 -53 -24 -5 -6 -7 0 -4 14 3 14 1
34 -3 45 -7 18 -10 16 -24 -17 -9 -20 -13 -45 -9 -55 4 -12 -2 -9 -20 10 -31
32 -38 33 -60 9 -24 -26 -22 -30 26 -44 35 -10 38 -12 18 -16 -29 -5 -71 -31
-71 -44 0 -5 10 -6 23 -2 l22 6 -22 -24 c-26 -28 -33 -69 -9 -49 12 10 15 7
18 -21 l3 -33 16 34 c21 41 31 28 19 -25 -14 -57 -12 -62 10 -34 22 28 25 23
8 -15 -14 -32 -3 -45 17 -19 14 17 15 9 12 -93 -2 -62 -6 -115 -9 -118 -3 -4
-33 -1 -66 5 -65 13 -72 21 -72 88 0 32 -23 46 -33 19 -5 -14 -29 -13 -102 1
l-40 7 -13 70 c-7 39 -18 129 -25 200 l-13 130 -17 -185 c-10 -102 -20 -193
-23 -202 -6 -19 -54 -26 -54 -8 0 15 -27 12 -33 -4 -3 -8 -3 -25 -1 -38 l5
-23 -16 25 c-16 24 -16 24 -12 2 3 -12 1 -20 -4 -17 -5 4 -8 17 -7 29 2 16 7
22 18 19 13 -4 13 -4 0 6 -8 6 -27 11 -42 11 -26 0 -28 -3 -28 -40 0 -38 -2
-40 -29 -40 -16 0 -42 -5 -57 -10 -15 -6 -28 -9 -29 -8 -5 6 -14 84 -21 181
-6 82 -4 103 11 137 10 22 22 37 28 33 6 -3 7 13 2 44 -6 47 -5 52 23 75 23
19 27 29 20 41 -5 10 -14 17 -19 17 -6 0 -7 -4 -4 -10 3 -6 -1 -7 -9 -4 -9 3
-14 11 -13 17 1 7 -6 11 -17 9 -11 -2 -15 1 -11 8 4 7 18 9 35 5 25 -6 28 -4
23 15 -3 12 -15 25 -26 29 -14 5 -17 10 -9 15 14 8 16 26 3 26 -4 0 -20 -12
-34 -26 l-26 -26 8 29 c4 15 5 36 2 46 -6 17 -8 17 -20 3z m95 -178 c5 -7 3
-8 -6 -3 -7 4 -16 2 -20 -5 -5 -8 -9 -3 -12 14 -4 22 -3 24 13 16 10 -6 21
-15 25 -22z m-120 6 c-3 -9 -6 -17 -6 -19 0 -2 -10 -1 -21 2 -21 6 -21 7 -4
20 25 18 38 17 31 -3z m36 -34 c4 -24 2 -27 -9 -19 -14 13 -18 64 -4 55 5 -3
11 -19 13 -36z m-254 10 c4 -12 3 -13 -10 -3 -8 7 -18 10 -21 6 -4 -3 -7 -1
-7 6 0 17 32 10 38 -9z m292 -28 c0 -7 -4 -10 -10 -7 -5 3 -10 16 -10 28 0 18
2 19 10 7 5 -8 10 -21 10 -28z m-395 1 c-5 -22 -4 -25 8 -14 13 10 14 7 7 -24
-8 -36 -19 -57 -21 -39 -5 54 -3 104 4 104 5 0 6 -12 2 -27z m55 -45 c0 -9 -4
-20 -10 -23 -6 -4 -10 9 -10 32 0 28 3 34 10 23 5 -8 10 -23 10 -32z m267 20
c-3 -8 -6 -5 -6 6 -1 11 2 17 5 13 3 -3 4 -12 1 -19z m53 -40 c0 -18 -2 -20
-9 -8 -6 8 -7 18 -5 22 9 14 14 9 14 -14z m695 -8 c-27 -12 -43 -12 -25 0 8 5
22 9 30 9 10 0 8 -3 -5 -9z m116 -17 c11 -13 11 -15 1 -9 -8 5 -26 12 -40 16
l-27 8 26 1 c15 1 33 -7 40 -16z m-105 -9 c-3 -9 -6 -18 -6 -21 0 -3 -7 0 -15
7 -13 11 -13 15 -3 21 21 13 31 10 24 -7z m34 -13 c0 -11 3 -28 7 -38 6 -15 5
-16 -9 -5 -14 11 -17 10 -23 -8 -4 -12 -9 -19 -12 -17 -2 3 1 16 8 29 7 12 12
31 10 41 -1 9 3 17 8 17 6 0 11 -9 11 -19z m42 -55 c-6 -10 -20 20 -21 44 0 8
6 4 13 -10 8 -14 12 -29 8 -34z m-18 -41 c3 -8 1 -15 -4 -15 -6 0 -10 7 -10
15 0 8 2 15 4 15 2 0 6 -7 10 -15z m326 -27 c0 -16 -3 -19 -11 -11 -6 6 -8 16
-5 22 11 17 16 13 16 -11z m-100 -8 c0 -5 -7 -7 -15 -4 -8 4 -15 8 -15 10 0 2
7 4 15 4 8 0 15 -4 15 -10z m60 -54 c0 -3 -4 -8 -10 -11 -5 -3 -10 -1 -10 4 0
6 5 11 10 11 6 0 10 -2 10 -4z m-80 -9 c0 -2 -10 -12 -21 -23 -22 -19 -22 -19
-10 4 10 18 31 31 31 19z m25 -39 c-4 -24 -11 -47 -15 -51 -9 -11 -6 66 4 82
14 22 18 11 11 -31z m-615 -14 c0 -8 -19 -13 -24 -6 -3 5 1 9 9 9 8 0 15 -2
15 -3z m-203 -20 c-3 -3 -12 -4 -19 -1 -8 3 -5 6 6 6 11 1 17 -2 13 -5z m70
-16 c-3 -8 -6 -5 -6 6 -1 11 2 17 5 13 3 -3 4 -12 1 -19z m63 7 c0 -8 -4 -15
-10 -15 -5 0 -7 7 -4 15 4 8 8 15 10 15 2 0 4 -7 4 -15z m255 -19 c0 -13 -3
-22 -7 -19 -5 2 -8 13 -8 24 0 10 3 19 8 19 4 0 7 -11 7 -24z m-105 4 c0 -5
-5 -10 -11 -10 -5 0 -7 5 -4 10 3 6 8 10 11 10 2 0 4 -4 4 -10z m60 -15 c-14
-17 -30 -20 -30 -4 0 5 4 8 9 4 5 -3 12 -1 16 5 3 5 9 10 12 10 3 0 0 -7 -7
-15z m-60 -23 c11 -12 25 -22 30 -22 6 0 10 -8 10 -19 0 -10 7 -24 15 -31 25
-21 56 -68 60 -92 4 -21 2 -21 -20 6 -13 17 -22 32 -20 36 2 3 -4 14 -12 25
-14 19 -15 18 -11 -12 2 -18 1 -30 -4 -27 -4 3 -8 19 -8 35 0 21 -10 40 -30
61 -17 16 -28 34 -24 39 3 5 -31 9 -80 9 -47 0 -86 4 -86 9 0 5 36 9 80 7 68
-1 83 -5 100 -24z m80 8 c0 -5 -5 -10 -11 -10 -5 0 -7 5 -4 10 3 6 8 10 11 10
2 0 4 -4 4 -10z m-330 -14 c0 -3 -4 -8 -10 -11 -5 -3 -10 -1 -10 4 0 6 5 11
10 11 6 0 10 -2 10 -4z m50 -15 c0 -11 5 -23 10 -26 6 -3 10 -18 10 -33 0 -19
-3 -23 -9 -14 -5 8 -20 15 -34 15 -23 2 -24 4 -11 18 8 8 14 25 14 37 0 12 5
22 10 22 6 0 10 -9 10 -19z m81 -12 c4 -13 7 -20 8 -16 1 4 12 -5 26 -20 24
-28 24 -28 25 -5 0 13 -5 32 -10 43 -22 39 -1 17 30 -32 31 -51 52 -143 23
-103 -7 10 -13 26 -13 35 0 24 -19 34 -26 15 -14 -37 -42 -8 -35 37 2 12 -17
8 -22 -5 -3 -7 -6 -4 -6 8 -1 11 -8 29 -16 40 -18 23 -19 37 -3 32 7 -3 15
-15 19 -29z m-332 -6 c-11 -13 -11 -17 -1 -20 6 -3 12 -11 12 -20 0 -11 6 -10
30 7 17 12 30 28 30 36 0 8 4 14 9 14 17 0 -1 -40 -33 -71 -17 -18 -25 -29
-18 -25 7 4 12 2 12 -6 0 -16 -9 -29 -35 -48 -18 -13 -19 -13 -8 0 12 16 14
60 3 60 -3 0 -12 -6 -20 -12 -8 -7 -6 -3 4 10 11 12 17 24 14 27 -9 9 -59 -14
-90 -40 -16 -14 -35 -25 -41 -25 -7 0 3 9 21 20 20 12 30 25 26 32 -5 7 -11 5
-20 -7 -20 -27 -27 -13 -7 14 14 21 17 22 25 7 8 -14 15 -11 51 24 44 42 59
52 36 23z m181 -13 c-6 -11 -13 -20 -16 -20 -2 0 0 9 6 20 6 11 13 20 16 20 2
0 0 -9 -6 -20z m393 3 c-7 -2 -19 -2 -25 0 -7 3 -2 5 12 5 14 0 19 -2 13 -5z
m127 -118 c0 -3 -4 -4 -9 -1 -5 4 -11 1 -13 -5 -2 -6 -19 3 -38 21 -25 23 -30
34 -21 40 9 5 10 10 2 14 -6 4 -16 17 -22 29 -6 12 14 -4 45 -35 31 -31 56
-60 56 -63z m23 65 c23 -22 37 -40 32 -40 -6 0 -30 18 -54 40 -23 22 -38 40
-31 40 6 0 30 -18 53 -40z m-1042 -97 l-2 -103 25 0 c28 0 30 7 26 128 -1 46
1 52 18 52 11 0 27 3 36 6 19 7 20 -46 9 -344 l-6 -182 -26 6 c-43 11 -45 17
-35 134 l9 110 -27 0 -28 0 0 -101 0 -100 -31 3 -32 3 2 239 c1 132 5 244 7
248 3 5 17 8 31 6 l26 -3 -2 -102z m1143 78 c-2 -3 -12 3 -22 13 -16 17 -16
18 5 5 12 -7 20 -15 17 -18z m-712 -166 c-3 -154 -1 -185 11 -185 9 0 14 -11
15 -29 1 -30 -16 -41 -65 -41 l-23 0 0 205 0 204 28 15 c15 8 29 15 32 16 3 0
4 -83 2 -185z m108 68 c-5 -194 -2 -243 15 -243 10 0 15 -10 15 -34 0 -30 -4
-34 -31 -40 -63 -12 -59 -24 -59 202 0 207 0 209 23 220 12 6 26 11 31 11 5 1
7 -52 6 -116z m70 86 c0 -6 -4 -7 -10 -4 -5 3 -10 11 -10 16 0 6 5 7 10 4 6
-3 10 -11 10 -16z m591 -9 c31 -26 15 -26 -18 0 -14 11 -21 20 -15 20 5 0 20
-9 33 -20z m170 -132 c0 -84 4 -177 8 -206 7 -50 6 -53 -17 -59 -14 -3 -27 -1
-31 6 -6 9 -11 8 -21 -4 -33 -40 -73 4 -80 89 -3 41 -9 60 -17 59 -7 -2 -13 2
-13 7 0 6 5 10 10 10 6 0 10 11 10 24 0 25 35 76 52 76 6 0 20 -8 31 -17 20
-18 20 -17 14 55 -5 65 -4 74 15 92 12 11 25 20 30 20 4 0 8 -69 9 -152z
m-1442 120 c0 -7 -4 -22 -9 -33 -7 -17 -9 -15 -9 13 -1 17 4 32 9 32 6 0 10
-6 9 -12z m771 -23 c0 -8 -2 -15 -4 -15 -2 0 -6 7 -10 15 -3 8 -1 15 4 15 6 0
10 -7 10 -15z m335 -15 c3 -5 -1 -10 -10 -10 -9 0 -13 5 -10 10 3 6 8 10 10
10 2 0 7 -4 10 -10z m-721 -133 c6 -31 15 -47 25 -48 14 -1 14 -2 0 -6 -20 -5
-29 -32 -29 -85 0 -33 -6 -42 -41 -68 -45 -32 -44 -32 -96 14 -21 18 -23 29
-23 112 0 51 3 100 6 109 4 9 22 27 42 40 l35 24 36 -23 c29 -19 38 -32 45
-69z m317 15 c3 -47 13 -44 26 8 7 28 15 36 36 38 25 3 26 1 33 -57 3 -33 10
-58 14 -56 5 3 14 28 20 56 14 59 21 53 39 -34 13 -60 24 -68 26 -19 4 101 4
102 26 102 14 0 19 -5 16 -14 -14 -36 -19 -86 -8 -86 6 0 11 14 11 31 0 22 9
40 31 60 17 16 35 29 39 29 25 0 71 -55 76 -91 8 -49 27 -46 34 6 3 26 13 44
33 59 26 19 29 19 55 4 41 -25 52 -54 52 -150 0 -86 0 -87 -32 -112 -29 -23
-34 -23 -59 -10 -37 19 -43 30 -49 93 -6 69 -30 83 -30 17 0 -60 -12 -88 -47
-108 -29 -17 -30 -17 -63 11 -30 25 -34 34 -38 89 -6 87 -26 81 -42 -13 -7
-42 -16 -78 -20 -80 -4 -2 -13 21 -19 51 -7 31 -15 54 -17 52 -2 -3 -12 -31
-22 -64 l-19 -59 -13 90 c-7 50 -16 98 -20 108 -4 12 -19 -32 -41 -120 -34
-134 -36 -138 -64 -141 -20 -3 -26 0 -22 10 2 8 13 41 22 75 16 58 16 64 -4
163 -12 57 -21 104 -21 106 0 6 45 10 52 5 4 -4 8 -25 9 -49z m144 -306 c11
-7 29 -16 40 -19 13 -3 8 -5 -14 -6 -19 0 -31 2 -27 6 3 4 -4 13 -16 20 -13 7
-18 12 -13 13 6 0 19 -6 30 -14z m45 10 c0 -11 -19 -15 -25 -6 -3 5 1 10 9 10
9 0 16 -2 16 -4z m-374 -22 c17 -12 38 -15 68 -12 35 4 43 2 39 -9 -3 -7 -13
-12 -22 -9 -9 2 -42 7 -73 11 -44 5 -56 10 -51 21 7 18 8 18 39 -2z m438 -10
c13 -5 13 -8 1 -20 -16 -16 -128 -18 -160 -3 -14 6 2 8 52 5 66 -4 102 5 71
17 -8 4 -7 6 4 6 9 1 23 -2 32 -5z m-470 -35 c-4 -8 1 -9 17 -4 19 6 21 5 13
-5 -13 -14 -58 -4 -49 11 4 5 11 9 16 9 6 0 7 -5 3 -11z m366 -24 c24 -14 24
-14 -22 -15 -59 0 -64 -20 -5 -21 32 0 37 -2 22 -9 -19 -8 -73 -5 -125 7 l-25
6 25 7 c24 8 23 8 -7 9 -17 1 -34 4 -36 9 -3 4 20 5 50 4 39 -3 53 -1 49 7
-10 16 44 13 74 -4z m-257 -2 c-13 -2 -35 -2 -50 0 -16 2 -5 4 22 4 28 0 40
-2 28 -4z m307 -33 c0 -5 -4 -10 -10 -10 -5 0 -10 5 -10 10 0 6 5 10 10 10 6
0 10 -4 10 -10z m-373 -6 c-3 -3 -12 -4 -19 -1 -8 3 -5 6 6 6 11 1 17 -2 13
-5z m66 -1 c-7 -2 -19 -2 -25 0 -7 3 -2 5 12 5 14 0 19 -2 13 -5z m-23 -55 c0
-6 -7 -7 -16 -4 -9 3 -20 6 -25 6 -5 0 -9 4 -9 9 0 4 11 6 25 3 14 -2 25 -9
25 -14z m82 -2 c7 4 8 3 4 -4 -4 -7 -4 -12 1 -13 38 -4 52 -8 78 -22 17 -9 26
-16 22 -17 -5 0 -18 5 -29 11 -13 7 -24 7 -30 1 -6 -6 6 -12 34 -17 24 -4 38
-9 31 -12 -17 -6 -94 17 -88 27 3 5 -3 11 -12 14 -10 4 -29 16 -43 27 -23 19
-23 19 -2 9 12 -6 28 -8 34 -4z"/>
<path d="M1717 923 c-4 -3 -7 -15 -7 -25 0 -15 5 -18 21 -13 15 5 19 4 15 -4
-4 -6 -13 -11 -21 -11 -10 0 -12 -10 -9 -37 9 -62 12 -67 29 -53 17 14 20 85
5 124 -9 26 -21 32 -33 19z"/>
<path d="M657 943 c-13 -12 -7 -51 9 -57 27 -10 34 -7 34 17 0 33 -26 57 -43
40z"/>
<path d="M650 842 c0 -44 9 -56 34 -46 17 7 23 74 7 74 -5 0 -16 3 -25 6 -13
5 -16 -2 -16 -34z"/>
<path d="M1373 933 c-19 -7 -15 -31 6 -43 27 -14 31 -13 31 9 0 22 -20 40 -37
34z"/>
<path d="M1531 908 c-5 -13 -6 -27 -3 -33 4 -5 9 -28 12 -50 8 -59 34 -54 38
7 3 42 1 46 -16 41 -11 -2 -23 1 -28 8 -5 8 -3 11 8 7 21 -9 42 7 35 26 -9 23
-36 20 -46 -6z"/>
<path d="M1360 847 c0 -20 3 -42 6 -51 8 -21 30 -21 38 0 9 24 7 74 -3 74 -5
0 -16 3 -25 6 -13 5 -16 -1 -16 -29z"/>
<path d="M1902 1005 c0 -16 2 -22 5 -12 2 9 2 23 0 30 -3 6 -5 -1 -5 -18z"/>
<path d="M525 550 c3 -5 11 -10 16 -10 6 0 7 5 4 10 -3 6 -11 10 -16 10 -6 0
-7 -4 -4 -10z"/>
<path d="M1231 411 c-10 -7 -7 -9 12 -8 14 1 23 5 20 10 -6 9 -15 9 -32 -2z"/>
</g>
</svg>
