<?xml version="1.0" standalone="no"?>
<!DOCTYPE svg PUBLIC "-//W3C//DTD SVG 20010904//EN"
 "http://www.w3.org/TR/2001/REC-SVG-20010904/DTD/svg10.dtd">
<svg version="1.0" xmlns="http://www.w3.org/2000/svg"
 width="256.000000pt" height="256.000000pt" viewBox="0 0 256.000000 256.000000"
 preserveAspectRatio="xMidYMid meet">

<g transform="translate(0.000000,256.000000) scale(0.100000,-0.100000)"
fill="#000000" stroke="none">
<path d="M1655 2553 c-172 -11 -432 -51 -605 -93 -41 -10 -131 -28 -200 -40
-235 -40 -441 -90 -504 -121 -128 -64 -206 -153 -255 -292 -26 -73 -31 -104
-31 -177 0 -85 2 -92 51 -196 40 -86 52 -123 56 -174 7 -93 16 -110 85 -155
l62 -40 29 -100 c15 -55 51 -146 79 -202 43 -87 50 -109 45 -140 -8 -48 17
-106 67 -152 30 -29 42 -55 77 -165 68 -217 102 -267 234 -340 87 -49 154 -56
280 -28 50 11 111 27 138 36 54 17 53 19 32 -72 -15 -63 -9 -102 16 -102 37 0
109 65 132 119 l14 33 22 -35 c25 -41 55 -55 78 -36 13 11 14 27 9 90 l-6 76
72 21 c165 48 469 132 548 152 162 40 208 59 237 97 42 55 37 96 -17 144 -25
22 -52 45 -60 53 -52 46 -59 69 -36 134 24 68 65 120 112 142 24 12 53 34 64
49 43 61 24 120 -118 368 -83 145 -302 557 -302 569 0 4 -24 57 -54 118 -30
61 -77 167 -105 236 -29 69 -63 149 -76 178 l-25 52 -47 -2 c-27 -1 -70 -3
-98 -5z m139 -96 c33 -115 34 -109 -10 -101 -60 10 -173 73 -189 104 l-14 28
64 7 c35 3 77 10 92 14 15 5 31 6 35 4 4 -2 14 -27 22 -56z m-166 -300 c11
-24 35 -66 54 -93 50 -71 119 -217 106 -225 -6 -4 -32 -10 -59 -13 -27 -4
-102 -20 -166 -36 -113 -28 -298 -61 -413 -75 -30 -3 -65 -9 -77 -12 -18 -4
-23 -1 -23 14 0 21 -46 141 -62 160 -8 10 -78 199 -78 211 0 2 15 2 32 -1 18
-3 114 10 213 29 305 58 389 73 420 77 17 2 31 5 32 6 1 0 11 -18 21 -42z
m-1022 -339 c9 -18 22 -40 28 -48 7 -8 17 -32 23 -52 9 -31 8 -40 -5 -50 -12
-10 -16 -10 -19 0 -12 33 -79 3 -174 -79 -58 -50 -99 -115 -119 -189 -7 -25
-14 -51 -16 -58 -3 -9 -17 -3 -44 20 -38 31 -40 36 -40 91 0 64 15 99 86 207
42 64 76 91 170 138 23 12 44 28 47 37 11 27 45 17 63 -17z m1793 -634 c37
-72 39 -78 25 -100 -16 -23 -45 -36 -121 -53 l-43 -9 0 35 c0 38 29 108 67
166 14 20 27 37 29 37 1 0 21 -34 43 -76z m-1570 -53 c17 -55 31 -101 31 -104
0 -3 -14 -8 -31 -12 -46 -10 -96 -60 -164 -165 -86 -133 -103 -143 -141 -85
-16 25 -16 28 -1 55 9 15 17 33 17 39 0 6 11 34 24 63 13 29 31 69 39 88 8 20
40 63 71 97 31 33 56 65 56 71 0 7 56 51 67 52 1 0 15 -45 32 -99z m1474 -193
c-48 -53 -67 -109 -68 -198 0 -47 2 -93 5 -104 4 -16 -22 -28 -210 -92 -118
-40 -276 -89 -350 -108 -74 -19 -142 -37 -151 -40 -10 -5 -20 4 -32 29 -9 20
-17 39 -17 44 0 4 33 13 73 20 120 20 367 82 367 92 0 14 -30 11 -142 -15
-196 -46 -263 -58 -326 -57 -41 0 -91 -8 -142 -25 -43 -13 -82 -24 -87 -23 -4
1 -16 -1 -26 -6 -9 -4 -26 -5 -37 -2 -20 5 -101 -9 -189 -33 -69 -18 -39 -23
38 -6 81 19 91 19 71 6 -10 -7 12 -8 72 -4 l87 7 11 -27 c17 -46 12 -52 -52
-70 -182 -52 -318 -16 -335 87 -11 68 5 126 48 172 79 85 297 165 544 200 61
8 187 33 280 54 299 70 352 81 386 82 19 0 66 9 104 19 97 25 103 24 78 -2z"/>
<path d="M1955 853 c-261 -61 -408 -103 -357 -103 7 0 86 18 177 40 91 22 198
45 237 50 40 6 74 13 77 15 6 6 -107 4 -134 -2z"/>
<path d="M1975 793 c-72 -21 -631 -139 -780 -164 -33 -6 -64 -15 -70 -21 -13
-13 15 -9 315 48 413 78 630 131 630 155 0 11 1 11 -95 -18z"/>
<path d="M1320 724 c-147 -39 -271 -78 -277 -87 -4 -6 1 -8 13 -5 10 3 98 27
194 53 96 26 177 49 179 51 9 9 -57 1 -109 -12z"/>
<path d="M2055 704 c-60 -13 -120 -24 -132 -24 -13 0 -23 -4 -23 -10 0 -5 12
-10 26 -10 33 0 254 49 274 61 26 15 -27 9 -145 -17z"/>
<path d="M1600 614 c-113 -23 -272 -55 -355 -70 -82 -14 -159 -30 -170 -35
-16 -7 -13 -8 10 -4 17 2 71 9 120 15 77 10 557 101 608 116 19 6 24 25 5 23
-7 -1 -105 -21 -218 -45z"/>
<path d="M980 524 c-36 -13 -56 -24 -44 -24 26 0 126 29 139 41 16 16 -27 8
-95 -17z"/>
<path d="M1103 377 c-62 -12 -73 -33 -12 -23 48 8 115 35 84 34 -11 0 -44 -5
-72 -11z"/>
</g>
</svg>
